<svg width="24" height="24" viewBox="0 0 24 24" fill="none" xmlns="http://www.w3.org/2000/svg">
<path d="M12.7203 3.29303C12.5325 3.10556 12.2778 3.00024 12.0122 3.00024C11.7466 3.00024 11.4919 3.10556 11.3041 3.29303L4.29335 10.293C4.11091 10.4816 4.00996 10.7342 4.01224 10.9964C4.01453 11.2586 4.11986 11.5094 4.30555 11.6948C4.49124 11.8803 4.74244 11.9854 5.00504 11.9877C5.26764 11.99 5.52063 11.8892 5.70953 11.707L6.00298 11.414V18C6.00298 18.2652 6.1085 18.5196 6.29632 18.7071C6.48415 18.8947 6.73889 19 7.00451 19H9.00759C9.27322 19 9.52796 18.8947 9.71579 18.7071C9.90361 18.5196 10.0091 18.2652 10.0091 18V16C10.0091 15.7348 10.1146 15.4805 10.3025 15.2929C10.4903 15.1054 10.745 15 11.0107 15H13.0137C13.2794 15 13.5341 15.1054 13.7219 15.2929C13.9098 15.4805 14.0153 15.7348 14.0153 16V18C14.0153 18.2652 14.1208 18.5196 14.3086 18.7071C14.4965 18.8947 14.7512 19 15.0168 19H17.0199C17.2855 19 17.5403 18.8947 17.7281 18.7071C17.9159 18.5196 18.0214 18.2652 18.0214 18V11.414L18.3149 11.707C18.5038 11.8892 18.7568 11.99 19.0194 11.9877C19.282 11.9854 19.5332 11.8803 19.7189 11.6948C19.9046 11.5094 20.0099 11.2586 20.0122 10.9964C20.0145 10.7342 19.9135 10.4816 19.7311 10.293L12.7203 3.29303Z" fill="#3F3F46"/>
</svg>
