<svg width="24" height="24" viewBox="0 0 24 24" fill="none" xmlns="http://www.w3.org/2000/svg">
<path d="M12 4C13.5913 4 15.1174 4.63214 16.2426 5.75736C17.3678 6.88258 18 8.4087 18 10V13.586L18.707 14.293C18.8468 14.4329 18.942 14.611 18.9806 14.805C19.0191 14.9989 18.9993 15.2 18.9236 15.3827C18.848 15.5654 18.7198 15.7215 18.5554 15.8314C18.391 15.9413 18.1977 16 18 16H5.99997C5.80222 16 5.60892 15.9413 5.44451 15.8314C5.2801 15.7215 5.15196 15.5654 5.07629 15.3827C5.00062 15.2 4.98082 14.9989 5.01939 14.805C5.05795 14.611 5.15316 14.4329 5.29297 14.293L5.99997 13.586V10C5.99997 8.4087 6.63211 6.88258 7.75733 5.75736C8.88255 4.63214 10.4087 4 12 4ZM12 20C12.7956 20 13.5587 19.6839 14.1213 19.1213C14.6839 18.5587 15 17.7956 15 17H8.99997C8.99997 17.7956 9.31604 18.5587 9.87865 19.1213C10.4413 19.6839 11.2043 20 12 20Z" fill="#B0BABF"/>
</svg>
