<svg width="24" height="24" viewBox="0 0 24 24" fill="none" xmlns="http://www.w3.org/2000/svg">
<path fill-rule="evenodd" clip-rule="evenodd" d="M6 5C5.46957 5 4.96086 5.28095 4.58579 5.78105C4.21071 6.28115 4 6.95942 4 7.66667V13C4 13.7072 4.21071 14.3855 4.58579 14.8856C4.96086 15.3857 5.46957 15.6667 6 15.6667V7.66667H16C16 6.95942 15.7893 6.28115 15.4142 5.78105C15.0391 5.28095 14.5304 5 14 5H6ZM8 13C8 12.2928 8.21071 11.6145 8.58579 11.1144C8.96086 10.6143 9.46957 10.3333 10 10.3333H18C18.5304 10.3333 19.0391 10.6143 19.4142 11.1144C19.7893 11.6145 20 12.2928 20 13V18.3333C20 19.0406 19.7893 19.7189 19.4142 20.219C19.0391 20.719 18.5304 21 18 21H10C9.46957 21 8.96086 20.719 8.58579 20.219C8.21071 19.7189 8 19.0406 8 18.3333V13ZM14 18.3333C14.5304 18.3333 15.0391 18.0524 15.4142 17.5523C15.7893 17.0522 16 16.3739 16 15.6667C16 14.9594 15.7893 14.2811 15.4142 13.781C15.0391 13.281 14.5304 13 14 13C13.4696 13 12.9609 13.281 12.5858 13.781C12.2107 14.2811 12 14.9594 12 15.6667C12 16.3739 12.2107 17.0522 12.5858 17.5523C12.9609 18.0524 13.4696 18.3333 14 18.3333Z" fill="#4094F7"/>
</svg>
