<svg width="16" height="16" viewBox="0 0 16 16" fill="none" xmlns="http://www.w3.org/2000/svg">
<g clip-path="url(#clip0_6502_34)">
<path d="M8.00016 14.6667C6.57067 14.6667 5.54198 14.666 4.73996 14.5882C3.94713 14.5114 3.43996 14.3637 3.03521 14.1093C2.57261 13.8187 2.18144 13.4276 1.89077 12.965C1.63653 12.5602 1.48875 12.0531 1.41198 11.2602C1.3342 10.4582 1.3335 9.42954 1.3335 8.00004C1.3335 6.57055 1.3342 5.54186 1.41198 4.73984C1.48875 3.94701 1.63653 3.43984 1.89077 3.03509C2.18143 2.57248 2.5726 2.18131 3.03521 1.89065C3.43996 1.6364 3.94713 1.48863 4.73996 1.41186C5.54188 1.33408 6.57057 1.33337 8.00016 1.33337C9.42966 1.33337 10.4583 1.33408 11.2604 1.41186C12.0532 1.48863 12.5604 1.6364 12.9651 1.89065C13.4277 2.18132 13.8188 2.57249 14.1095 3.03509C14.3638 3.43984 14.5115 3.94701 14.5883 4.73984C14.6661 5.54186 14.6668 6.57055 14.6668 8.00004C14.6668 9.42954 14.6661 10.4582 14.5883 11.2602C14.5115 12.0531 14.3638 12.5602 14.1095 12.965C13.8188 13.4276 13.4277 13.8187 12.9651 14.1093C12.5604 14.3637 12.0532 14.5114 11.2604 14.5882C10.4583 14.666 9.42966 14.6667 8.00016 14.6667Z" fill="white" stroke="white" stroke-width="2"/>
<path d="M8.00016 11.3333C9.47292 11.3333 10.6668 10.1394 10.6668 8.66667C10.6668 7.19391 9.47292 6 8.00016 6C6.5274 6 5.3335 7.19391 5.3335 8.66667C5.3335 10.1394 6.5274 11.3333 8.00016 11.3333Z" fill="white" stroke="black" stroke-width="2"/>
<path d="M11.25 5.5C11.6642 5.5 12 5.16421 12 4.75C12 4.33579 11.6642 4 11.25 4C10.8358 4 10.5 4.33579 10.5 4.75C10.5 5.16421 10.8358 5.5 11.25 5.5Z" fill="black"/>
</g>
<defs>
<clipPath id="clip0_6502_34">
<rect width="16" height="16" fill="white"/>
</clipPath>
</defs>
</svg>
