<svg width="16" height="16" viewBox="0 0 16 16" fill="none" xmlns="http://www.w3.org/2000/svg">
<path d="M11.8839 3.358C11.2245 2.59144 10.8791 1.60104 10.9066 0.592723L8.44275 0.533203C8.44275 0.533203 8.44275 0.638323 8.44275 0.780083V10.6602C8.47715 13.786 3.53859 13.7102 3.92931 10.2551C4.16819 8.88136 5.64435 8.03592 6.95603 8.51384V5.99992C4.10035 5.50264 1.39411 7.7756 1.42259 10.6713C1.67219 16.9513 10.6795 16.9521 10.9295 10.6713C10.8666 10.4465 10.9018 6.26152 10.8928 5.90856C12.0131 6.60568 13.3167 6.95416 14.6368 6.90952V4.3132C13.4163 4.3132 12.485 3.98872 11.8839 3.358Z" fill="white"/>
</svg>
